<svg id="Layer_1" data-name="Layer 1" xmlns="http://www.w3.org/2000/svg" viewBox="0 0 419.24 419.17"><defs><style>.cls-1{fill:#6d5344;}</style></defs><title>testsvg</title><path class="cls-1" d="M557.11,477.94c18-51.06,34.81-102.56,53.92-153.23,9-23.78,18.44-47.38,28.67-70.65,1.24-2.83,1.59-5.21,0-7.95a68.77,68.77,0,0,1-3.42-7.2c-2.92-6.55-2.09-12.1,2.34-15.91s10.09-3.83,16.18-.09l1.51,1c1.67-3.18,3.12-6.32,4.91-9.27,7-11.52,6.75-23.35,1.52-35.32a11.83,11.83,0,0,1-1.14-4.06A46.44,46.44,0,0,0,637,188.1l-162.95,163a46.68,46.68,0,0,0,0,66l77.31,77.31Q554.22,486.14,557.11,477.94Z" transform="translate(-460.38 -174.5)"/><path class="cls-1" d="M866,351.05l-163-163a46.45,46.45,0,0,0-30.62-13.6,13.62,13.62,0,0,1,1.72,2.92c6.65,15,5.94,30.09-1.42,44.33-4.6,8.9-3.5,15.67,1.67,23.88,24.47,38.82,43.77,80.23,60.25,123,13.12,34.07,24,68.77,31.2,104.59,2.68,13.31,2.87,26.84,3.64,40.32L866,417.05A46.68,46.68,0,0,0,866,351.05Z" transform="translate(-460.38 -174.5)"/><path class="cls-1" d="M717.45,555.9c-1.44-20.25-3.38-40.46-5.37-60.66a675.82,675.82,0,0,0-30.32-144.12,845.08,845.08,0,0,0-32.62-84,9.19,9.19,0,0,0-2-3c3,6.33-.55,11.33-2.78,16.62-6.06,14.4-11.78,28.94-15.63,44.11-2.94,11.59-1.4,15.36,8.4,22.33,8.27,5.88,10.12,11,7,20.68q-26.68,82.92-53.49,165.8L637,580a46.66,46.66,0,0,0,66,0l15.94-15.94A35.53,35.53,0,0,1,717.45,555.9Z" transform="translate(-460.38 -174.5)"/></svg>